<svg width="454" height="302" xmlns="http://www.w3.org/2000/svg" xmlns:xlink="http://www.w3.org/1999/xlink" overflow="hidden"><defs><clipPath id="clip0"><rect x="0" y="0" width="454" height="302"/></clipPath></defs><g clip-path="url(#clip0)"><rect x="0" y="0" width="454" height="302.333" fill="#080F18"/><path d="M63.5 71.9615C63.5 66.1089 68.2549 61.3645 74.1203 61.3645L519.88 61.3645C525.745 61.3645 530.5 66.1089 530.5 71.9615L530.5 325.162C530.5 331.014 525.745 335.759 519.88 335.759L74.1203 335.759C68.2549 335.759 63.5 331.014 63.5 325.162Z" stroke="#CCCCCC" stroke-width="2.66961" stroke-miterlimit="8" fill="#131923" fill-rule="evenodd"/><rect x="182.5" y="61.3645" width="369" height="274.394" stroke="#CCCCCC" stroke-width="2.66961" stroke-miterlimit="8" fill="#141414"/><rect x="184" y="62.8612" width="369" height="130.711" fill="#0D1117"/><path d="M359 260.259C359 258.146 360.716 256.434 362.833 256.434L419.167 256.434C421.284 256.434 423 258.146 423 260.259L423 275.558C423 277.671 421.284 279.383 419.167 279.383L362.833 279.383C360.716 279.383 359 277.671 359 275.558Z" fill="#1677FF" fill-rule="evenodd"/></g></svg>